<svg width="24" height="24" viewBox="0 0 24 24" fill="none" xmlns="http://www.w3.org/2000/svg">
<path fill-rule="evenodd" clip-rule="evenodd" d="M6.49361 4.06698C10.1522 3.64231 13.8477 3.64231 17.5063 4.06697ZM17.5065 4.067C18.2101 4.14898 18.75 4.76116 18.75 5.507V19.7865L12.3354 16.5792C12.1243 16.4736 11.8757 16.4736 11.6646 16.5792L5.25 19.7865V5.507C5.25 4.76085 5.78919 4.14894 6.49348 4.067M6.32052 2.577C10.0942 2.13897 13.9058 2.13897 17.6795 2.577L17.6797 2.57702C19.176 2.75114 20.25 4.03691 20.25 5.507V21C20.25 21.2599 20.1154 21.5013 19.8943 21.638C19.6732 21.7746 19.3971 21.7871 19.1646 21.6708L12 18.0885L4.83541 21.6708C4.60292 21.7871 4.32681 21.7746 4.1057 21.638C3.88459 21.5013 3.75 21.2599 3.75 21V5.507C3.75 4.0372 4.82274 2.75113 6.32039 2.57702L6.32052 2.577Z" fill="#111111" fill-opacity="0.6"/>
</svg>
